<?xml version="1.0" encoding="iso-8859-1"?>
<!-- Generator: Adobe Illustrator 19.0.0, SVG Export Plug-In . SVG Version: 6.00 Build 0)  -->
<svg version="1.1" id="Layer_1" xmlns="http://www.w3.org/2000/svg" xmlns:xlink="http://www.w3.org/1999/xlink" x="0px" y="0px"
	 viewBox="0 0 292.111 119.189" style="enable-background:new 0 0 292.111 119.189;" xml:space="preserve">
<rect id="XMLID_38_" style="fill:#FFFFFF;" width="292.111" height="88.574"/>
<path id="XMLID_33_" style="opacity:0.45;" d="M43.422,30.37c-0.015-0.133-0.04-0.26-0.068-0.38
	c-0.022-0.093-0.043-0.179-0.071-0.263c0-0.003,0-0.009-0.003-0.012c-0.015-0.046-0.028-0.09-0.043-0.133l-0.176-0.377L31.727,4.485
	c0.003-0.003,0.003-0.003,0-0.003c-0.019-0.043-0.043-0.083-0.071-0.121c-0.019-0.031-0.043-0.059-0.065-0.083l-0.009-0.009
	l-0.148-0.133c-0.003,0-0.003,0-0.003-0.003c-0.031-0.019-0.059-0.037-0.09-0.053c-0.13-0.071-0.281-0.111-0.442-0.111
	c-0.325,0-0.612,0.167-0.776,0.421c-0.006,0.012-0.015,0.022-0.022,0.034l-0.105,0.272l-2.662,6.818
	c-0.022,0.059-0.04,0.121-0.049,0.182c-0.012,0.053-0.015,0.105-0.015,0.161c0,0.13,0.025,0.25,0.074,0.362
	c0.012,0.028,0.025,0.056,0.037,0.08l5.455,11.905l3.593,7.839c0.003,0.003,0.003,0.006,0.006,0.009l0.281,0.612
	c0.003,0.003,0.003,0.009,0.003,0.012c0.028,0.083,0.049,0.17,0.071,0.263c0.028,0.121,0.053,0.247,0.068,0.38
	c0.071,0.513,0.074,1.107,0,1.738c-0.015,0.155-0.04,0.312-0.068,0.47c0,0.006,0,0.012-0.003,0.019
	c-0.071,0.402-0.167,0.789-0.284,1.141l-0.263,0.677l-1.33,3.401l-0.207,0.526c-0.17,0.39-0.365,0.721-0.575,0.983
	c-0.142,0.182-0.297,0.331-0.448,0.436c-0.028,0.019-0.059,0.037-0.087,0.049c-0.006,0.006-0.012,0.009-0.019,0.012
	c-0.009,0.006-0.019,0.012-0.028,0.015l-0.164,0.074l-6.707,3.04l-0.393,0.176c-0.093,0.022-0.186,0.025-0.278,0.009
	c-0.08-0.015-0.158-0.043-0.232-0.087c-0.031-0.015-0.059-0.037-0.087-0.059c-0.003,0-0.006-0.003-0.009-0.006l-0.158-0.142
	l-2.842-2.523l-0.291-0.254c0-0.003-0.003-0.003-0.003-0.006c-0.213-0.266-0.365-0.671-0.451-1.166c-0.105-0.6-0.111-1.333,0-2.115
	c0.012-0.096,0.028-0.192,0.043-0.288c0.049-0.3,0.118-0.588,0.198-0.86c0,0,0-0.003,0.003-0.006l0.458-1.175
	c0-0.003,0-0.006,0.003-0.006l1.225-3.139l0.108-0.272c0-0.003,0-0.006,0-0.006c0.012-0.062,0.019-0.124,0.019-0.189
	c0-0.201-0.062-0.383-0.17-0.535c-0.019-0.031-0.043-0.059-0.065-0.083l-0.009-0.009l-0.148-0.133c-0.003,0-0.003,0-0.003-0.003
	l-2.328-2.063l-0.315-0.281c-0.13-0.071-0.281-0.111-0.442-0.111c-0.325,0-0.612,0.167-0.776,0.421l-0.136,0.346l-3.606,9.234
	l-0.281,0.714c0,0.003,0,0.003,0,0.003c-0.118,0.349-0.213,0.727-0.281,1.126c-0.015,0.096-0.031,0.192-0.043,0.288
	c-0.111,0.782-0.105,1.515,0,2.115c0.099,0.569,0.288,1.02,0.55,1.277c0.031,0.031,0.062,0.059,0.096,0.083l6.967,6.181l0.019,0.019
	c0.031,0.031,0.062,0.059,0.096,0.083h0.003c0.031,0.025,0.062,0.046,0.096,0.065c0.074,0.043,0.152,0.071,0.232,0.087
	c0.121,0.022,0.241,0.009,0.362-0.031c0.003,0,0.009,0,0.012-0.003l0.192-0.09l13.349-6.045l0.244-0.111
	c0.028-0.012,0.059-0.031,0.087-0.049c0.152-0.105,0.306-0.254,0.448-0.436c0.232-0.288,0.445-0.662,0.628-1.101
	c0.034-0.083,0.068-0.17,0.102-0.26l3.893-9.973l0.34-0.872c0.102-0.325,0.189-0.68,0.254-1.045
	c0.003-0.006,0.003-0.012,0.003-0.019c0.028-0.158,0.053-0.315,0.068-0.47C43.497,31.477,43.493,30.884,43.422,30.37z"/>
<path id="XMLID_31_" style="opacity:0.45;fill:#79C368;" d="M48.831,49.224v11.444c0,0.451-0.179,0.878-0.492,1.237l-4.199,5.028
	l-0.127,0.152c-0.009,0.015-0.022,0.031-0.037,0.04c-0.164,0.186-0.43,0.309-0.73,0.309c-0.504,0-0.909-0.334-0.909-0.742v-7.091
	c-0.331-1.466-0.986-2.455-1.874-2.61c-0.186-0.034-0.374-0.028-0.563,0.012l-0.748,0.334c-0.785,0.529-1.543,1.599-2.14,3.009
	c-0.417,0.98-0.758,2.121-0.977,3.358c-0.034,0.192-0.065,0.383-0.09,0.572v14.985c0,0.532-0.405,0.965-0.906,0.965
	c-0.3,0-0.569-0.158-0.73-0.399c-0.015-0.015-0.028-0.034-0.037-0.053l-4.329-6.738c-0.309-0.467-0.492-1.02-0.492-1.608v-5.272
	c-0.034-0.266-0.08-0.523-0.136-0.764c-0.331-1.466-0.986-2.455-1.874-2.61c-0.003,0-0.009-0.003-0.012,0
	c-0.173-0.034-0.349-0.028-0.526,0.009l-0.798,0.356l-5.077,2.26l-1.41,0.628c-0.281,0.244-0.557,0.557-0.819,0.931
	c-0.229,0.288-0.451,0.618-0.659,0.986c-0.674,1.178-1.228,2.743-1.54,4.499c-0.034,0.192-0.065,0.383-0.09,0.572
	c-0.019,0.127-0.034,0.25-0.046,0.374v26.813h0.028v18.012c0,0.532-0.408,0.965-0.915,0.965c-0.303,0-0.572-0.158-0.736-0.399
	c-0.015-0.015-0.028-0.034-0.037-0.053L10.441,112c-0.312-0.467-0.495-1.02-0.495-1.608V67.434h0.025V67.14
	c0.012-0.124,0.025-0.247,0.046-0.374c0.025-0.189,0.056-0.38,0.09-0.572c0.408-2.307,1.237-4.283,2.199-5.486
	c0.288-0.362,0.588-0.652,0.894-0.863c0.009-0.006,0.015-0.012,0.025-0.019c0.022-0.015,0.04-0.028,0.062-0.037l0.634-0.284
	l28.418-12.65h0.031l2.987-1.33l0.912-0.405c0.161-0.028,0.322-0.031,0.479,0c0.887,0.155,1.543,1.144,1.874,2.61
	c0.056,0.241,0.102,0.498,0.136,0.764C48.788,48.729,48.816,48.973,48.831,49.224z"/>
<g id="XMLID_17_">
	<path id="XMLID_2_" style="fill:#282B35;" d="M57.872,34.039c-0.247-0.097-0.419-0.269-0.516-0.516
		c-0.107-0.247-0.107-0.494,0-0.741l2.24-5.398v-0.016l6.526-15.743c0.021-0.054,0.048-0.113,0.081-0.177l0.064-0.064
		c0.032-0.043,0.054-0.07,0.064-0.081s0.038-0.032,0.081-0.064c0.054-0.043,0.075-0.059,0.064-0.048
		c0.107-0.075,0.22-0.124,0.338-0.145h0.081c0.064-0.011,0.102-0.016,0.113-0.016s0.043,0.005,0.097,0.016c0.064,0,0.091,0,0.081,0
		c0.129,0.021,0.247,0.07,0.354,0.145l0.064,0.048c0.043,0.043,0.07,0.064,0.081,0.064c0.011,0.011,0.032,0.038,0.064,0.081
		c0.043,0.054,0.064,0.075,0.064,0.064c0.032,0.064,0.059,0.124,0.081,0.177l6.526,15.743v0.016l2.24,5.398
		c0.107,0.247,0.107,0.494,0,0.741c-0.097,0.247-0.269,0.419-0.516,0.516c-0.118,0.054-0.242,0.081-0.371,0.081
		c-0.43,0-0.725-0.199-0.886-0.596l-1.998-4.802H61.127l-1.998,4.802c-0.161,0.397-0.457,0.596-0.886,0.596
		c-0.129,0-0.193,0-0.193,0S57.99,34.092,57.872,34.039z M72.1,26.788l-5.092-12.278l-5.092,12.278H72.1z"/>
	<path id="XMLID_5_" style="fill:#282B35;" d="M82.058,11.061c0.258,0,0.483,0.097,0.677,0.29c0.183,0.183,0.274,0.408,0.274,0.677
		v20.174h10.458c0.269,0,0.494,0.091,0.677,0.274c0.193,0.193,0.29,0.419,0.29,0.677c0,0.269-0.097,0.5-0.29,0.693
		c-0.183,0.183-0.408,0.274-0.677,0.274H82.058c-0.269,0-0.5-0.091-0.693-0.274c-0.183-0.193-0.274-0.424-0.274-0.693V12.028
		c0-0.269,0.091-0.494,0.274-0.677C81.559,11.158,81.79,11.061,82.058,11.061z"/>
	<path id="XMLID_7_" style="fill:#282B35;" d="M99.364,34.119c-0.269,0-0.494-0.097-0.677-0.29c-0.193-0.183-0.29-0.408-0.29-0.677
		V11.947c0-0.269,0.097-0.494,0.29-0.677c0.193-0.204,0.419-0.301,0.677-0.29l12.794,0.032c0.269,0,0.494,0.097,0.677,0.29
		c0.193,0.193,0.29,0.419,0.29,0.677c0,0.269-0.097,0.5-0.29,0.693c-0.183,0.183-0.408,0.274-0.677,0.274l-11.827-0.032v8.669h8.846
		c0.269,0,0.494,0.097,0.677,0.29c0.193,0.183,0.29,0.408,0.29,0.677s-0.097,0.494-0.29,0.677c-0.183,0.193-0.408,0.29-0.677,0.29
		h-8.846v8.669h11.827c0.269,0,0.494,0.097,0.677,0.29c0.193,0.183,0.29,0.408,0.29,0.677s-0.097,0.494-0.29,0.677
		c-0.183,0.193-0.408,0.29-0.677,0.29H99.364z"/>
	<path id="XMLID_9_" style="fill:#282B35;" d="M133.411,11.109c0.215,0.161,0.344,0.371,0.387,0.628c0.054,0.269,0,0.51-0.161,0.725
		l-7.122,10.071l7.122,10.055c0.161,0.226,0.215,0.467,0.161,0.725c-0.043,0.269-0.172,0.478-0.387,0.628
		c-0.172,0.118-0.36,0.177-0.564,0.177c-0.333,0-0.596-0.134-0.79-0.403l-6.735-9.523l-6.735,9.523
		c-0.193,0.269-0.457,0.403-0.79,0.403c-0.204,0-0.392-0.059-0.564-0.177c-0.215-0.15-0.344-0.36-0.387-0.628
		c-0.043-0.258,0.011-0.5,0.161-0.725l7.138-10.055l-7.138-10.071c-0.15-0.215-0.204-0.457-0.161-0.725
		c0.043-0.258,0.172-0.467,0.387-0.628c0.226-0.15,0.467-0.204,0.725-0.161c0.269,0.043,0.478,0.177,0.628,0.403l6.735,9.507
		l6.735-9.507c0.161-0.226,0.371-0.36,0.628-0.403C132.955,10.905,133.196,10.959,133.411,11.109z"/>
	<path id="XMLID_11_" style="fill:#282B35;" d="M137.794,34.039c-0.247-0.097-0.419-0.269-0.516-0.516
		c-0.107-0.247-0.107-0.494,0-0.741l2.24-5.398v-0.016l6.526-15.743c0.021-0.054,0.048-0.113,0.081-0.177l0.064-0.064
		c0.032-0.043,0.054-0.07,0.064-0.081s0.038-0.032,0.081-0.064c0.054-0.043,0.075-0.059,0.064-0.048
		c0.107-0.075,0.22-0.124,0.338-0.145h0.081c0.064-0.011,0.102-0.016,0.113-0.016s0.043,0.005,0.097,0.016c0.064,0,0.091,0,0.081,0
		c0.129,0.021,0.247,0.07,0.354,0.145l0.064,0.048c0.043,0.043,0.07,0.064,0.081,0.064c0.011,0.011,0.032,0.038,0.064,0.081
		c0.043,0.054,0.064,0.075,0.064,0.064c0.032,0.064,0.059,0.124,0.081,0.177l6.526,15.743v0.016l2.24,5.398
		c0.107,0.247,0.107,0.494,0,0.741c-0.097,0.247-0.269,0.419-0.516,0.516c-0.118,0.054-0.242,0.081-0.371,0.081
		c-0.43,0-0.725-0.199-0.886-0.596l-1.998-4.802h-11.763l-1.998,4.802c-0.161,0.397-0.457,0.596-0.886,0.596
		c-0.129,0-0.193,0-0.193,0S137.912,34.092,137.794,34.039z M152.022,26.788l-5.092-12.278l-5.092,12.278H152.022z"/>
	<path id="XMLID_14_" style="fill:#282B35;" d="M177.513,33.781l-0.016-0.016l-0.016-0.016l-14.744-18.998v18.401
		c0,0.269-0.097,0.494-0.29,0.677c-0.183,0.193-0.408,0.29-0.677,0.29s-0.494-0.097-0.677-0.29c-0.193-0.183-0.29-0.408-0.29-0.677
		V11.931c0-0.462,0.215-0.768,0.645-0.918c0.44-0.15,0.8-0.043,1.08,0.322l14.76,18.998V11.931c0-0.269,0.091-0.494,0.274-0.677
		c0.193-0.193,0.419-0.29,0.677-0.29c0.269,0,0.5,0.097,0.693,0.29c0.182,0.183,0.273,0.408,0.273,0.677v21.221c0-0.021,0,0,0,0.064
		c0,0.032-0.006,0.064-0.016,0.097c0,0.021-0.006,0.048-0.018,0.081c-0.01,0.043-0.021,0.075-0.031,0.097
		c-0.012,0.021-0.021,0.048-0.033,0.081c-0.01,0.032-0.025,0.059-0.047,0.081c-0.012,0.021-0.027,0.048-0.049,0.081
		s-0.043,0.059-0.064,0.081c-0.011,0.011-0.032,0.032-0.064,0.064c-0.054,0.043-0.07,0.054-0.049,0.032
		c0.021-0.011,0.012,0-0.031,0.032c-0.012,0.011-0.027,0.021-0.049,0.032c-0.032,0.021-0.064,0.038-0.097,0.048
		c-0.021,0.011-0.043,0.021-0.064,0.032c-0.032,0.011-0.069,0.021-0.112,0.032c-0.033,0.011-0.055,0.016-0.064,0.016
		c-0.064,0.011-0.124,0.016-0.178,0.016c-0.064,0-0.129-0.005-0.193-0.016l-0.064-0.016c-0.054-0.021-0.097-0.038-0.129-0.048
		c-0.011-0.011-0.032-0.027-0.064-0.048c-0.043-0.021-0.081-0.043-0.113-0.064c-0.011-0.011-0.032-0.027-0.064-0.048
		c-0.032-0.032-0.048-0.048-0.048-0.048S177.545,33.813,177.513,33.781z"/>
	<path id="XMLID_18_" style="fill:#282B35;" d="M186.328,34.119c-0.27,0-0.495-0.091-0.678-0.274
		c-0.193-0.193-0.289-0.424-0.289-0.693V11.963c0-0.269,0.096-0.5,0.289-0.693c0.183-0.193,0.408-0.29,0.678-0.29h5.365
		c3.18,0,5.897,1.128,8.153,3.384s3.384,4.974,3.384,8.153s-1.128,5.897-3.384,8.153s-4.974,3.384-8.153,3.384l-5.35,0.064H186.328z
		 M187.295,32.17l4.383-0.064c2.652,0,4.919-0.935,6.799-2.804c1.88-1.88,2.82-4.141,2.82-6.784s-0.94-4.904-2.82-6.784
		c-1.88-1.869-4.141-2.804-6.783-2.804h-4.398V32.17z"/>
	<path id="XMLID_21_" style="fill:#282B35;" d="M209.773,34.119c-0.269,0-0.494-0.097-0.677-0.29
		c-0.193-0.183-0.29-0.408-0.29-0.677V11.947c0-0.269,0.097-0.494,0.29-0.677c0.193-0.204,0.419-0.301,0.677-0.29l12.794,0.032
		c0.269,0,0.494,0.097,0.677,0.29c0.193,0.193,0.29,0.419,0.29,0.677c0,0.269-0.097,0.5-0.29,0.693
		c-0.183,0.183-0.408,0.274-0.677,0.274l-11.827-0.032v8.669h8.847c0.268,0,0.493,0.097,0.676,0.29
		c0.193,0.183,0.291,0.408,0.291,0.677s-0.098,0.494-0.291,0.677c-0.183,0.193-0.408,0.29-0.676,0.29h-8.847v8.669h11.827
		c0.269,0,0.494,0.097,0.677,0.29c0.193,0.183,0.29,0.408,0.29,0.677s-0.097,0.494-0.29,0.677c-0.183,0.193-0.408,0.29-0.677,0.29
		H209.773z"/>
	<path id="XMLID_23_" style="fill:#282B35;" d="M236.568,11.045c1.858,0,3.449,0.607,4.77,1.821c1.311,1.214,1.967,2.68,1.967,4.399
		c0,1.525-0.538,2.868-1.611,4.028c-1.054,1.149-2.38,1.848-3.98,2.095l4.592,9.362c0.118,0.236,0.135,0.478,0.049,0.725
		s-0.247,0.43-0.483,0.548c-0.129,0.064-0.269,0.097-0.419,0.097c-0.397,0-0.683-0.177-0.854-0.532l-4.979-10.103h-5.382v9.523
		c0,0.258-0.097,0.483-0.29,0.677c-0.183,0.183-0.408,0.274-0.677,0.274c-0.258,0-0.483-0.091-0.677-0.274
		c-0.183-0.193-0.274-0.419-0.274-0.677V11.996c0-0.269,0.092-0.494,0.274-0.677c0.193-0.183,0.419-0.274,0.677-0.274H236.568z
		 M241.402,17.265c0-1.192-0.473-2.208-1.418-3.045c-0.945-0.849-2.084-1.273-3.416-1.273h-6.332v8.621h6.445
		c1.311-0.021,2.422-0.451,3.336-1.289C240.94,19.44,241.402,18.436,241.402,17.265z"/>
	<path id="XMLID_26_" style="fill:#282B35;" d="M254.777,34.039c-0.247-0.097-0.419-0.269-0.516-0.516
		c-0.107-0.247-0.107-0.494,0-0.741l2.24-5.398v-0.016l6.525-15.743c0.021-0.054,0.049-0.113,0.08-0.177l0.064-0.064
		c0.033-0.043,0.054-0.07,0.064-0.081s0.038-0.032,0.081-0.064c0.054-0.043,0.075-0.059,0.064-0.048
		c0.107-0.075,0.22-0.124,0.339-0.145h0.08c0.064-0.011,0.102-0.016,0.113-0.016c0.01,0,0.042,0.005,0.096,0.016
		c0.064,0,0.092,0,0.081,0c0.129,0.021,0.247,0.07,0.354,0.145l0.064,0.048c0.043,0.043,0.069,0.064,0.08,0.064
		c0.011,0.011,0.033,0.038,0.064,0.081c0.043,0.054,0.064,0.075,0.064,0.064c0.033,0.064,0.06,0.124,0.081,0.177l6.526,15.743v0.016
		l2.239,5.398c0.107,0.247,0.107,0.494,0,0.741c-0.097,0.247-0.269,0.419-0.516,0.516c-0.118,0.054-0.241,0.081-0.37,0.081
		c-0.431,0-0.726-0.199-0.887-0.596l-1.998-4.802h-11.763l-1.998,4.802c-0.161,0.397-0.457,0.596-0.886,0.596
		c-0.129,0-0.193,0-0.193,0S254.896,34.092,254.777,34.039z M269.006,26.788l-5.092-12.278l-5.092,12.278H269.006z"/>
	<path id="XMLID_29_" style="fill:#282B35;" d="M278.593,32.476c0.183-0.172,0.413-0.258,0.693-0.258
		c0.268,0,0.493,0.086,0.676,0.258c0.183,0.193,0.274,0.419,0.274,0.677c0,0.269-0.092,0.494-0.274,0.677
		c-0.193,0.193-0.418,0.29-0.676,0.29c-0.27,0-0.5-0.097-0.693-0.29c-0.183-0.183-0.273-0.408-0.273-0.677
		C278.319,32.895,278.41,32.669,278.593,32.476z"/>
	<path id="XMLID_32_" style="fill:#282B35;" d="M69.902,55.653c2.421,0,4.493,0.791,6.215,2.373
		c1.708,1.582,2.562,3.493,2.562,5.732c0,1.988-0.7,3.737-2.1,5.249c-1.372,1.498-3.101,2.408-5.186,2.729l5.984,12.199
		c0.154,0.308,0.175,0.623,0.063,0.945c-0.112,0.322-0.322,0.56-0.63,0.714c-0.168,0.084-0.35,0.126-0.546,0.126
		c-0.518,0-0.889-0.231-1.113-0.693l-6.488-13.165H61.65v12.409c0,0.336-0.126,0.63-0.378,0.882
		c-0.238,0.238-0.532,0.357-0.882,0.357c-0.336,0-0.63-0.119-0.882-0.357c-0.238-0.252-0.357-0.546-0.357-0.882V56.892
		c0-0.35,0.119-0.644,0.357-0.882c0.252-0.238,0.546-0.357,0.882-0.357H69.902z M76.201,63.757c0-1.554-0.616-2.876-1.848-3.968
		c-1.232-1.105-2.716-1.659-4.451-1.659H61.65v11.233h8.398c1.708-0.028,3.156-0.588,4.346-1.68
		C75.599,66.592,76.201,65.283,76.201,63.757z"/>
	<path id="XMLID_36_" style="fill:#282B35;" d="M97.251,84.46c0,0.35-0.126,0.644-0.378,0.882c-0.238,0.252-0.532,0.378-0.882,0.378
		c-0.35,0-0.644-0.126-0.882-0.378c-0.252-0.238-0.378-0.532-0.378-0.882V56.955c0-0.35,0.126-0.644,0.378-0.882
		c0.238-0.252,0.532-0.378,0.882-0.378c0.35,0,0.644,0.126,0.882,0.378c0.252,0.238,0.378,0.532,0.378,0.882V84.46z"/>
	<path id="XMLID_39_" style="fill:#282B35;" d="M128.546,85.719c-4.157,0-7.706-1.477-10.645-4.43
		c-2.954-2.939-4.43-6.488-4.43-10.645c0-4.171,1.477-7.727,4.43-10.666c2.939-2.953,6.488-4.43,10.645-4.43
		c3.429,0,6.495,1.043,9.196,3.128c0.28,0.21,0.441,0.49,0.483,0.84c0.042,0.35-0.042,0.658-0.252,0.924
		c-0.21,0.28-0.49,0.441-0.84,0.483c-0.35,0.056-0.658-0.028-0.924-0.252c-2.254-1.722-4.808-2.583-7.664-2.583
		c-3.458,0-6.411,1.225-8.86,3.674c-2.45,2.45-3.674,5.41-3.674,8.881c0,3.458,1.225,6.411,3.674,8.86
		c2.449,2.45,5.403,3.674,8.86,3.674c3.247,0,6.068-1.084,8.461-3.254c0.252-0.238,0.553-0.35,0.903-0.336
		c0.35,0.014,0.644,0.154,0.882,0.42c0.238,0.252,0.35,0.553,0.336,0.903c-0.014,0.35-0.154,0.644-0.42,0.882
		C135.839,84.411,132.452,85.719,128.546,85.719z"/>
	<path id="XMLID_41_" style="fill:#282B35;" d="M156.105,85.509c-0.336,0-0.63-0.126-0.882-0.378
		c-0.238-0.238-0.357-0.532-0.357-0.882V56.808c0-0.336,0.119-0.63,0.357-0.882c0.252-0.238,0.546-0.357,0.882-0.357
		c0.35,0,0.644,0.119,0.882,0.357c0.252,0.252,0.378,0.546,0.378,0.882v15.81l15.726-16.545c0.238-0.252,0.525-0.385,0.861-0.399
		c0.35,0,0.651,0.119,0.903,0.357c0.252,0.238,0.378,0.525,0.378,0.861c0.014,0.35-0.098,0.651-0.336,0.903l-12.073,12.682
		l12.493,13.144c0.238,0.238,0.357,0.532,0.357,0.882c-0.014,0.35-0.147,0.644-0.399,0.882c-0.238,0.224-0.525,0.336-0.861,0.336
		c-0.35,0-0.651-0.126-0.903-0.378l-12.409-13.06l-3.737,3.947v8.021c0,0.35-0.126,0.644-0.378,0.882
		C156.749,85.383,156.455,85.509,156.105,85.509z"/>
	<path id="XMLID_43_" style="fill:#282B35;" d="M192.209,85.719c-0.35,0-0.644-0.126-0.882-0.378
		c-0.252-0.238-0.378-0.532-0.378-0.882V56.829c0-0.35,0.126-0.644,0.378-0.882c0.252-0.266,0.546-0.392,0.882-0.378l16.671,0.042
		c0.35,0,0.644,0.126,0.882,0.378c0.252,0.252,0.378,0.546,0.378,0.882c0,0.35-0.126,0.651-0.378,0.903
		c-0.238,0.238-0.532,0.357-0.882,0.357l-15.411-0.042v11.296h11.526c0.351,0,0.645,0.126,0.883,0.378
		c0.252,0.238,0.377,0.532,0.377,0.882c0,0.35-0.125,0.644-0.377,0.882c-0.238,0.252-0.532,0.378-0.883,0.378h-11.526V83.2h15.411
		c0.35,0,0.644,0.126,0.882,0.378c0.252,0.238,0.378,0.532,0.378,0.882c0,0.35-0.126,0.644-0.378,0.882
		c-0.238,0.252-0.532,0.378-0.882,0.378H192.209z"/>
	<path id="XMLID_45_" style="fill:#282B35;" d="M236.586,55.653c2.421,0,4.492,0.791,6.215,2.373
		c1.707,1.582,2.561,3.493,2.561,5.732c0,1.988-0.699,3.737-2.1,5.249c-1.371,1.498-3.1,2.408-5.186,2.729l5.984,12.199
		c0.153,0.308,0.175,0.623,0.063,0.945c-0.112,0.322-0.322,0.56-0.63,0.714c-0.168,0.084-0.35,0.126-0.546,0.126
		c-0.518,0-0.889-0.231-1.113-0.693l-6.487-13.165h-7.013v12.409c0,0.336-0.126,0.63-0.378,0.882
		c-0.238,0.238-0.532,0.357-0.882,0.357c-0.336,0-0.63-0.119-0.882-0.357c-0.238-0.252-0.356-0.546-0.356-0.882V56.892
		c0-0.35,0.118-0.644,0.356-0.882c0.252-0.238,0.546-0.357,0.882-0.357H236.586z M242.885,63.757c0-1.554-0.616-2.876-1.848-3.968
		c-1.232-1.105-2.716-1.659-4.451-1.659h-8.252v11.233h8.398c1.708-0.028,3.156-0.588,4.346-1.68
		C242.282,66.592,242.885,65.283,242.885,63.757z"/>
	<path id="XMLID_48_" style="fill:#282B35;" d="M268.113,58.109h-8.294c-0.35,0-0.651-0.119-0.903-0.357
		c-0.237-0.238-0.356-0.532-0.356-0.882c0-0.35,0.119-0.644,0.356-0.882c0.252-0.252,0.554-0.378,0.903-0.378h19.085
		c0.351,0,0.645,0.126,0.883,0.378c0.252,0.238,0.377,0.532,0.377,0.882c0,0.35-0.125,0.644-0.377,0.882
		c-0.238,0.238-0.532,0.357-0.883,0.357h-8.293v26.35c0,0.35-0.119,0.651-0.357,0.903c-0.252,0.238-0.553,0.357-0.902,0.357
		c-0.336,0-0.63-0.119-0.882-0.357c-0.238-0.252-0.356-0.553-0.356-0.903V58.109z"/>
</g>
</svg>
